<?xml version="1.0" standalone="no"?>
<!DOCTYPE svg PUBLIC "-//W3C//DTD SVG 20010904//EN"
 "http://www.w3.org/TR/2001/REC-SVG-20010904/DTD/svg10.dtd">
<svg version="1.0" xmlns="http://www.w3.org/2000/svg"
 width="100.000000pt" height="100.000000pt" viewBox="0 0 100.000000 100.000000"
 preserveAspectRatio="xMidYMid meet">
<metadata>
Created by potrace 1.11, written by Peter Selinger 2001-2013
</metadata>
<g transform="translate(0.000000,100.000000) scale(0.100000,-0.100000)"
fill="#000000" stroke="none">
<path d="M7 993 c-4 -10 -2 -23 8 -47 6 -13 5 -21 -3 -24 -7 -2 -10 -8 -6 -13
8 -14 62 -10 144 11 l75 20 -57 -5 c-31 -3 -63 -8 -71 -11 -19 -7 -17 17 3 41
12 14 12 18 -1 26 -17 11 -86 12 -92 2z"/>
<path d="M125 991 c-3 -5 -1 -12 5 -16 16 -10 12 -25 -7 -25 -9 0 -14 -2 -11
-5 3 -4 17 -3 32 1 19 5 26 13 26 31 0 23 -2 24 -17 12 -11 -10 -14 -10 -9 -1
4 6 3 12 -3 12 -5 0 -12 -4 -16 -9z"/>
<path d="M343 993 c-13 -2 -23 -9 -23 -14 0 -6 5 -7 11 -3 6 3 43 10 82 14
l72 7 -60 0 c-33 0 -70 -2 -82 -4z"/>
<path d="M840 967 c0 -15 -41 -37 -68 -37 -10 0 -23 -5 -29 -11 -6 -6 -27 -12
-47 -14 -19 -2 -40 -6 -45 -9 -5 -4 -12 -2 -16 4 -3 5 -11 10 -16 10 -6 0 -7
-5 -3 -11 5 -8 -3 -10 -27 -5 -119 24 -173 28 -210 16 -21 -7 -37 -16 -36 -19
1 -3 -7 -18 -17 -33 -18 -27 -40 -36 -49 -20 -2 4 -3 2 -1 -4 2 -7 -11 -12
-31 -12 -18 0 -41 -5 -52 -12 -14 -9 -7 -10 39 -6 l57 4 -20 -38 c-11 -22 -19
-52 -17 -67 2 -24 -1 -28 -22 -30 -43 -4 -110 -20 -118 -28 -4 -5 1 -5 10 -2
9 3 44 9 78 13 53 6 60 5 54 -10 -3 -8 -1 -30 5 -47 14 -40 -4 -59 -55 -59
-24 0 -34 -4 -29 -9 10 -10 90 1 102 13 4 3 9 47 13 97 4 57 12 95 21 104 17
17 255 30 264 14 4 -5 17 -9 31 -9 38 0 64 -33 64 -84 0 -23 3 -71 6 -104 7
-60 7 -61 23 -39 9 12 22 34 29 50 9 20 19 27 39 27 35 0 73 10 73 19 0 4 -22
5 -49 1 l-49 -6 -4 60 c-5 66 -1 73 47 80 17 2 66 10 110 17 44 6 86 12 93 12
6 0 12 4 12 9 0 11 -108 8 -130 -3 -8 -4 -43 -14 -77 -21 l-63 -14 -25 37
c-14 21 -39 46 -55 54 -37 19 -31 35 13 35 43 1 138 24 165 41 19 12 32 59 17
59 -3 0 -5 -6 -5 -13z"/>
<path d="M936 948 c3 -4 -9 -8 -25 -8 -17 0 -31 -4 -31 -10 0 -14 63 -13 95 2
35 16 31 24 -9 24 -19 0 -32 -4 -30 -8z"/>
<path d="M587 943 c-9 -15 17 -23 34 -11 11 8 11 9 -3 5 -9 -3 -18 -1 -21 6
-2 8 -5 8 -10 0z"/>
<path d="M667 939 c7 -7 15 -10 18 -7 3 3 -2 9 -12 12 -14 6 -15 5 -6 -5z"/>
<path d="M555 930 c-3 -5 -1 -10 4 -10 6 0 11 5 11 10 0 6 -2 10 -4 10 -3 0
-8 -4 -11 -10z"/>
<path d="M966 875 c4 -8 7 -15 9 -15 1 0 8 7 15 15 10 13 9 15 -8 15 -15 0
-20 -5 -16 -15z"/>
<path d="M857 843 c-4 -3 -7 -11 -7 -17 0 -6 5 -5 12 2 6 6 9 14 7 17 -3 3 -9
2 -12 -2z"/>
<path d="M15 830 c-3 -5 -1 -10 4 -10 6 0 11 5 11 10 0 6 -2 10 -4 10 -3 0 -8
-4 -11 -10z"/>
<path d="M55 780 l-30 -8 30 0 c17 0 44 4 60 8 l30 8 -30 0 c-16 0 -43 -4 -60
-8z"/>
<path d="M65 650 c-16 -7 -17 -9 -3 -9 9 -1 20 4 23 9 7 11 7 11 -20 0z"/>
<path d="M338 639 c-10 -5 -18 -19 -18 -30 0 -12 4 -17 11 -13 8 4 7 0 -1 -15
-10 -20 -9 -21 17 -16 21 5 25 4 13 -4 -12 -8 -8 -11 18 -11 40 0 72 15 72 35
0 25 36 17 59 -14 12 -16 33 -31 47 -34 25 -4 34 7 12 16 -8 3 -5 6 5 6 10 1
27 -4 39 -10 11 -6 22 -8 25 -5 8 8 -38 45 -57 46 -9 1 -11 3 -3 6 6 3 23 -2
36 -11 29 -19 44 -6 27 24 -12 24 -46 29 -119 18 -40 -6 -66 -4 -99 8 -53 17
-61 18 -84 4z"/>
<path d="M940 634 c-19 -7 -43 -13 -52 -13 -10 -1 -18 -6 -18 -12 0 -6 9 -8
23 -3 12 4 40 10 61 13 22 3 41 12 44 19 5 15 -12 14 -58 -4z"/>
<path d="M207 623 c-12 -12 -7 -33 8 -33 17 0 19 9 7 28 -5 7 -11 9 -15 5z"/>
<path d="M80 552 c0 -4 12 -8 28 -9 23 -1 24 -1 7 7 -26 11 -35 12 -35 2z"/>
<path d="M11 519 c-11 -19 -11 -21 4 -15 9 3 28 6 41 6 13 0 24 5 24 11 0 7
-10 9 -26 5 -17 -5 -23 -3 -19 4 3 5 2 10 -2 10 -5 0 -14 -10 -22 -21z"/>
<path d="M706 505 c4 -8 8 -15 10 -15 2 0 4 7 4 15 0 8 -4 15 -10 15 -5 0 -7
-7 -4 -15z"/>
<path d="M373 479 c-29 -27 -46 -58 -25 -45 10 6 8 -92 -3 -116 -9 -22 12 -57
61 -101 43 -38 62 -44 92 -28 9 6 29 12 43 15 31 7 73 47 91 87 13 30 32 41
21 13 -6 -15 1 -16 63 -11 38 3 89 12 114 21 38 13 40 14 10 9 -19 -3 -47 -7
-63 -8 -15 -1 -30 -5 -34 -9 -3 -3 -23 -6 -43 -6 l-38 0 3 52 c3 51 3 52 -11
25 -16 -29 -30 -35 -37 -14 -3 9 -7 9 -20 -1 -14 -12 -15 -9 -14 22 1 24 6 35
15 31 21 -8 13 10 -16 38 -30 29 -53 37 -31 11 11 -14 11 -18 -2 -28 -9 -6
-14 -16 -12 -23 3 -9 -4 -10 -29 -2 -18 5 -50 9 -70 7 -38 -2 -43 2 -35 25 4
9 7 9 18 0 20 -19 86 -17 93 3 9 23 4 26 -56 29 -42 2 -52 6 -50 19 4 21 2 21
-35 -15z m165 -90 c16 -1 22 -7 22 -25 0 -13 -4 -24 -10 -24 -5 0 -10 -6 -10
-13 0 -23 -38 -60 -55 -53 -8 3 -15 11 -15 17 0 8 -4 8 -15 -1 -8 -7 -21 -10
-30 -7 -8 4 -19 -1 -25 -11 -9 -16 -11 -16 -25 2 -17 23 -19 36 -5 36 6 0 8
15 4 39 -6 36 -4 40 17 44 13 3 47 3 74 1 28 -2 60 -5 73 -5z"/>
<path d="M440 346 c0 -9 6 -16 13 -16 16 0 46 20 30 20 -6 0 -18 3 -27 6 -11
4 -16 1 -16 -10z"/>
<path d="M855 478 c-138 -23 -156 -28 -137 -35 12 -5 195 19 260 33 23 5 32
25 10 23 -7 -1 -67 -10 -133 -21z"/>
<path d="M670 480 c0 -5 5 -10 10 -10 6 0 10 5 10 10 0 6 -4 10 -10 10 -5 0
-10 -4 -10 -10z"/>
<path d="M185 420 c-3 -5 -1 -10 4 -10 6 0 11 5 11 10 0 6 -2 10 -4 10 -3 0
-8 -4 -11 -10z"/>
<path d="M204 408 c-3 -4 -39 -7 -81 -7 -45 0 -80 -4 -87 -11 -8 -9 17 -10
104 -6 120 7 150 12 150 25 0 10 -80 9 -86 -1z"/>
<path d="M770 379 c0 -5 5 -7 10 -4 6 3 10 8 10 11 0 2 -4 4 -10 4 -5 0 -10
-5 -10 -11z"/>
<path d="M307 339 c3 -10 11 -19 19 -19 16 0 8 26 -11 33 -9 4 -11 -1 -8 -14z"/>
<path d="M907 339 c6 -23 26 -30 63 -22 21 4 30 11 30 25 0 16 -7 19 -49 17
-41 -2 -47 -5 -44 -20z m40 -5 c-3 -3 -12 -4 -19 -1 -8 3 -5 6 6 6 11 1 17 -2
13 -5z"/>
<path d="M68 333 c6 -2 12 -11 12 -19 0 -17 19 -18 40 -3 12 9 11 10 -7 6 -13
-3 -24 1 -27 9 -3 8 -11 14 -18 13 -10 0 -10 -2 0 -6z"/>
<path d="M160 291 c0 -13 -9 -21 -30 -26 -39 -9 -31 -23 10 -17 25 4 30 9 30
33 0 16 -2 29 -5 29 -3 0 -5 -9 -5 -19z"/>
<path d="M250 277 c-51 -11 -52 -12 -21 -15 45 -5 103 6 96 19 -4 5 -9 8 -13
8 -4 -1 -32 -6 -62 -12z"/>
<path d="M818 264 c19 -9 14 -21 -13 -28 -14 -4 -25 -11 -25 -17 0 -6 3 -9 8
-7 50 25 62 33 59 42 -2 6 -12 12 -23 13 -10 2 -13 0 -6 -3z"/>
<path d="M985 260 c-3 -5 -1 -10 4 -10 6 0 11 5 11 10 0 6 -2 10 -4 10 -3 0
-8 -4 -11 -10z"/>
<path d="M23 253 c15 -2 37 -2 50 0 12 2 0 4 -28 4 -27 0 -38 -2 -22 -4z"/>
<path d="M745 240 l-30 -8 27 -1 c15 0 30 4 33 9 3 6 5 9 3 9 -2 -1 -16 -5
-33 -9z"/>
<path d="M228 212 c-26 -16 -38 -34 -20 -31 19 3 23 -2 12 -17 -12 -13 -10
-15 14 -12 17 3 35 17 52 41 l25 37 -28 -1 c-15 0 -40 -8 -55 -17z"/>
<path d="M58 213 c-24 -6 -23 -22 5 -51 15 -16 17 -23 7 -20 -8 2 -18 8 -22
13 -5 6 -8 3 -8 -7 0 -12 11 -19 34 -23 38 -8 67 -4 67 8 -1 4 -1 17 -1 30 0
14 -10 29 -29 40 -16 9 -31 16 -33 16 -1 -1 -11 -3 -20 -6z m62 -23 c3 -1 -6
-6 -19 -11 -19 -7 -28 -6 -40 6 -15 15 -13 16 19 12 19 -3 37 -6 40 -7z"/>
<path d="M664 203 c4 -12 -5 -57 -23 -112 l-29 -91 194 0 194 0 0 68 c-1 56
-3 64 -13 51 -21 -27 -85 -27 -157 1 l-65 25 50 7 c28 3 81 7 118 7 49 1 67 5
65 13 -3 7 -16 15 -31 19 -17 5 -25 4 -21 -2 4 -7 -8 -8 -31 -3 -25 4 -40 3
-45 -6 -4 -7 -36 -13 -79 -15 -68 -3 -73 -2 -103 28 -25 26 -29 27 -24 10z"/>
<path d="M326 138 c4 -40 13 -80 20 -88 11 -11 14 -11 14 -1 0 11 3 11 15 1
22 -19 20 8 -5 45 -11 16 -22 49 -26 72 -11 72 -25 48 -18 -29z"/>
<path d="M832 198 c2 -6 10 -14 16 -16 7 -2 10 2 6 12 -7 18 -28 22 -22 4z"/>
<path d="M6 177 c3 -10 9 -15 12 -12 3 3 0 11 -7 18 -10 9 -11 8 -5 -6z"/>
<path d="M195 130 c-16 -7 -12 -9 18 -9 20 -1 37 3 37 7 0 11 -31 12 -55 2z"/>
<path d="M220 97 c-45 -23 -59 -27 -54 -13 3 9 -6 13 -30 14 -32 1 -59 -15
-55 -34 4 -24 -4 -35 -33 -48 -31 -13 -23 -14 108 -15 l142 -1 4 25 c3 14 1
28 -4 31 -4 3 -6 10 -3 15 3 5 -1 6 -9 3 -9 -3 -17 2 -21 15 -7 25 -12 25 -45
8z"/>
</g>
</svg>
